<?xml version="1.0" encoding="UTF-8"?>
<!DOCTYPE svg PUBLIC "-//W3C//DTD SVG 1.1//EN" "http://www.w3.org/Graphics/SVG/1.1/DTD/svg11.dtd">
<!-- Creator: CorelDRAW X7 -->
<svg xmlns="http://www.w3.org/2000/svg" xml:space="preserve" width="210mm" height="297mm" version="1.1" style="shape-rendering:geometricPrecision; text-rendering:geometricPrecision; image-rendering:optimizeQuality; fill-rule:evenodd; clip-rule:evenodd"
viewBox="0 0 21000 29700"
 xmlns:xlink="http://www.w3.org/1999/xlink">
 <defs>
  <style type="text/css">
   <![CDATA[
    .fil0 {fill:black}
   ]]>
  </style>
 </defs>
 <g id="Layer_x0020_1">
  <metadata id="CorelCorpID_0Corel-Layer"/>
  <g id="_1490109514560">
   <path class="fil0" d="M909 1210l0 27647c0,67 21,87 87,87l19217 0 0 -6617c-377,0 -604,-56 -604,86l0 5927 -18095 0 0 -26612 18095 0 0 17463c0,142 227,86 604,86l0 -18153 -19217 0c-66,0 -87,20 -87,86z"/>
   <path class="fil0" d="M4477 26527c615,0 449,89 633,-374l809 -2097c51,-142 103,-262 158,-417 50,-140 143,-307 155,-449l1169 2916c54,153 119,269 154,421l547 0c73,-139 146,-353 204,-514 62,-172 133,-354 195,-525 127,-351 267,-681 396,-1043l594 -1563c45,-116 185,-453 193,-555l-547 0c-34,148 -94,283 -148,427 -116,313 -1108,2907 -1117,3025l-58 0c-35,-149 -95,-284 -148,-427l-827 -2194c-55,-152 -108,-280 -165,-439 -167,-468 -66,-392 -586,-392 -108,0 -128,191 -201,374 -56,141 -118,298 -169,436 -112,302 -222,570 -331,876l-497 1317c-42,119 -145,337 -154,449l-58 0c-34,-148 -95,-284 -148,-427 -50,-135 -114,-306 -164,-440 -112,-302 -213,-583 -325,-883l-481 -1303c-182,-500 -26,-399 -694,-399 3,154 125,403 176,543 62,171 132,353 194,525 349,963 759,1949 1094,2905 49,141 56,227 147,227z"/>
   <path class="fil0" d="M7613 12171l0 5725c0,142 227,87 604,87l0 -1151c0,-82 151,-199 213,-247l485 -436c89,-86 153,-172 251,-238 86,58 1288,1575 1487,1822l152 193c40,40 -1,57 87,57 804,0 822,147 221,-595 -174,-216 -323,-406 -496,-626l-991 -1253 1316 -1274c121,-116 397,-294 439,-453 -148,0 -539,-19 -659,2 -74,14 -636,529 -729,624l-1776 1618 0 -3941c-377,0 -604,-56 -604,86z"/>
   <path class="fil0" d="M3326 3627l0 5725c0,142 227,86 604,86l0 -1150c0,-96 312,-325 453,-468 93,-94 156,-129 245,-215 90,-86 153,-172 252,-238 85,57 1287,1575 1487,1821 270,334 53,250 814,250 169,0 3,-135 -103,-271 -93,-119 -157,-208 -251,-324l-1487 -1879 1316 -1273c120,-116 396,-294 439,-453 -938,0 -570,-89 -1202,467l-546 490c-122,124 -224,193 -345,316l-1072 971 0 -3941c-377,0 -604,-56 -604,86z"/>
   <path class="fil0" d="M14719 20716l0 5725c0,142 227,86 604,86l0 -1151c0,-81 151,-199 213,-246 106,-82 149,-130 240,-221l496 -453c93,62 1121,1371 1278,1570l361 444c40,40 -1,57 87,57 550,0 727,56 606,-110 -386,-524 -1596,-1953 -1872,-2364l1316 -1274c120,-116 397,-294 439,-452 -148,0 -539,-20 -659,2 -104,18 -435,371 -542,465l-546 489c-123,125 -225,194 -346,317 -77,79 -101,95 -184,161 -69,55 -112,106 -175,170l-712 640 0 -3942c-377,0 -604,-55 -604,87z"/>
   <path class="fil0" d="M15783 17465c-305,0 -448,-18 -728,-135 -307,-129 -588,-414 -720,-719 -253,-587 -168,-1391 275,-1873 524,-569 1604,-640 2260,58 117,125 205,302 269,478 363,1003 -237,2191 -1356,2191zm-2186 -1726l0 316c0,767 570,1511 1265,1784 131,52 241,86 400,118 328,67 599,70 928,1 1195,-252 1846,-1375 1610,-2539 -280,-1383 -1718,-1972 -2917,-1501 -739,289 -1286,993 -1286,1821z"/>
   <path class="fil0" d="M9914 7741c0,449 133,818 324,1086 642,898 2243,743 2759,98 56,-69 102,-158 168,-206l0 719c366,0 575,54 575,-86l0 -4028c0,-142 -227,-86 -604,-86l0 2186c0,475 -133,817 -356,1082 -500,594 -2270,745 -2262,-851l2 -2189c4,-280 68,-228 -606,-228l0 2503z"/>
   <path class="fil0" d="M10231 23449c0,382 74,649 373,863 724,518 2302,321 2302,978 0,176 13,262 -97,421 -48,69 -132,123 -209,164 -528,282 -1480,110 -1977,-143 -108,-55 -192,-145 -306,-154 -66,125 -206,354 -230,460 262,176 385,251 729,364 977,319 2694,152 2694,-997 0,-757 -464,-991 -1186,-1144 -703,-149 -1489,-138 -1489,-812 0,-500 610,-605 1009,-633 108,-7 239,21 370,31 118,9 219,38 331,71 300,87 486,234 591,243 40,-75 73,-155 117,-229 46,-78 89,-125 113,-231 -315,-211 -645,-298 -1022,-359 -866,-138 -2113,133 -2113,1107z"/>
   <path class="fil0" d="M17193 3627l0 5725c0,142 227,86 604,86l0 -5897c-377,0 -604,-56 -604,86z"/>
   <path class="fil0" d="M3729 13869l0 4027c0,142 227,87 604,87l0 -4201c-377,0 -604,-55 -604,87z"/>
   <path class="fil0" d="M19494 21061c0,279 214,403 489,403 325,0 492,-463 225,-714 -260,-245 -714,-65 -714,311z"/>
   <path class="fil0" d="M3614 12517c0,279 214,402 489,402 325,0 492,-462 225,-714 -261,-245 -714,-65 -714,312z"/>
  </g>
 </g>
</svg>
